<svg xmlns="http://www.w3.org/2000/svg" width="256" height="256" viewBox="0 0 256 256">
<!-- SVG created with Arrow, by QuiverAI (https://quiver.ai) -->
  <path d="m67.94 175.7c-18.31-1.35-23.22 0.44-32.11 6.34-12.9 8.76-17.4 21.18-19.46 29.4 5.85-5.5 10.42-6.83 17.42-6.69-12.07 8.56-13.72 23.09-19.58 33.96-2.89 5.27-5.02 7.94-8.21 11.29 20.73-6.25 34.62-12.08 47.98-25.65 1.67 4.74-1.27 12.86-5.97 17.26 11.9-3.62 23.25-9.89 30.3-19.61 6.68-9 7.87-21.06 4.67-32.55-0.22 9.39-4.87 18.9-18.45 25.67 2.28-3.81 2.19-9.02 0.56-11.7-5.94 7.87-14.78 9.58-26.1 13.82 6.82-9.23 5.93-17.02 14.84-23.9-3.84-0.94-6.04-0.33-11.49 0.63 5.05-10.85 13.64-16.67 25.6-18.27z" fill="#000"/>
  <path d="m63.79 146.8 61.36 37.22-8.19 5.35-12.53-6.95-7.76 4.81 7.24 8.82-8.94 5-35.69-44.16 4.51-10.09zm10.98 16.41 15.12 15.45 4.39-3.59-19.51-11.86z" fill="#000"/>
  <path d="m74.73 126.9 39.08 16.8-30.12-26.56 5.94-8.44 63.16 56.43-6.87 5.01-39-18.45 28.19 25.51-8.2 6.51-55.82-49.02 3.64-7.79z" fill="#000"/>
  <path d="m92.66 103.8 7.49-10.17c3.88-4.58 11.66-3.91 22.14 1.36 16.83 8.9 36.03 27.8 46.33 43.67 3.33 7.17 2.49 12.6-0.13 14.59l-11.57 9.21-43.31-39.58-20.95-19.08zm20.6 5.27 35.19 33.12 2.94-2.49c2.48-2.13 0.16-8.53-10.56-19.41-11.56-11.85-20.71-16.7-24.24-14.43l-3.33 3.21z" fill="#000"/>
  <path d="m135.2 52.29 18.65-15.58 15.32 14.6-10.72 9.05 11.06 9.68 9.3-8.33 13.37 13.57-7.5 8.92 11.23 10.62 9.89-10.88 16.2 13.84-15.57 19.64-71.23-65.13z" fill="#000"/>
  <path d="m185.9 24.49c2.31 1.8 8.57 14.72 8.57 14.72-5.76-0.57-11.56-1.57-13.16 0.7-1.26 2.27 4.39 7.85 9.68 6.83 7.8-1.03 16.77-1.42 26.84 7.97 12.63 11.42 19.97 23 13.74 29.27-4.24 4.89-7.18 4.33-16.88 3.9l-12.63-16.42c5.4 1.35 11.83 1.46 14.31-1.6 2.06-2.27-1.47-6.08-7.32-6.8-8.76 0.81-16.96 0.95-26.26-7.33-12.63-10.87-20.53-21.49-16.08-27.42 3.74-5.64 10.18-5.08 19.19-3.82z" fill="#000"/>
  <path d="m168 100.1 35.78 19.25-7.31 7.97-27.46-17.82-1.66 2.41 22.78 21.63-6.23 6.43-70.42-63.23 10.72-11.85c6.87-5.68 24.88 5.33 37.88 19.26 6.36 6.7 8 10.9 9.09 15.1l-3.17 0.85zm-32.93-16.8 15.32 14.6 2.28-1.6c3.53-2.63 1.05-6.97-6.06-13.1-5.55-4.44-7.67-4.54-9.88-3.03l-1.66 3.13z" fill="#000"/>
  <path d="m103.2 202.1 9.8 17.85-0.84-21.91 4.04-2.44 12.07 39.84-3.67 4.07-6.75-23.4 0.96 19.64-2.01 1.5-7.4-14.36 6.87 24.42-4.24 3.09-3.33-14.36c-0.99-11.32-2.5-21.94-7.37-31.63l1.87-2.31z" fill="#000"/>
  <path d="m122.4 191.3 4.04-2.34 17.36 36.45-4.8 3.82-4.04-7.15-2.79 2 1.53 10-4.8 3.21-6.5-45.99zm4.04 9.39 3.4 16.09 2.86-1.85-6.26-14.24z" fill="#000"/>
  <path d="m131.2 186.8 4.24-2.71 8.76 22.75c1.87 4.92 3.74 4.49 4.04 1.33 0.41-2.92-5.45-19.86-8.78-27.01l4.8-4.45c3.01 8.07 7.88 21.18 8.46 29.45 0.22 5.93-1.97 13.85-6.01 14.13-4.8 0-8.61-10.09-10.14-16.02l-5.37-17.47z" fill="#000"/>
  <path d="m146.3 177.1 5.86-4.92c3.88-2.07 6.74 2.27 7.93 6.89 1.46 5.7 0.81 9.51 5.54 14.68l-2.41 7.82-6.87-8.36 2.48 14.6-2.79 3.88-9.74-34.59zm4.73 3.48 3.07 8.89 1.53-1.6c1.53-1.5 1.18-4.8-0.07-7.29-1.06-2-2.45-2.21-4.53 0z" fill="#000"/>
  <path d="m160.6 164.4 3.33 6.43 3.33 12.37-1.16 9-6.87-25 1.37-2.8z" fill="#000"/>
  <path d="m15.11 139.4 11.83 2.31-8.03-8.36 3.2-4.85 18.31 22.39-10.41-2.8-9.57-2.49 7.11 4.85-15.39-0.14c-2.48-0.88-3.13-2.08-2.14-3.81l5.09-7.1z" fill="#000"/>
  <path d="m27.55 123.2 4.39-5.05 28.45 24.1-3.07 5.2-6.71-4.98-2.65 3.68 4.96 7.23-3.2 0.96-22.17-31.14zm7.36 4.92 8.4 11.12 2.65-2.92-11.05-8.2z" fill="#000"/>
  <path d="m43.03 107.1 4.11-3.25 18.48 30.1-1.8 4.24-30.13-21.86 3.94-4.2 18.15 14.46-12.75-19.49z" fill="#000"/>
  <path d="m47.96 102.7 12-6.82 5.16 5.2-6.16 4 3.1 3 5-3.65 4.1 4.37-4.24 5.06 3 3.16 5.09-6.99 3.33 4.45-8.76 12.12-21.62-23.9z" fill="#000"/>
  <path d="m80.07 92.81 0.58 3.81c-2.86 0.14-6.53-0.29-8.4 1.21-1.23 1.19 0.3 2.22 2.17 1.26 4.11-1.4 9.48-4.08 12.34-2.97 2.41 0.89 1.99 3.45-0.29 7.33-2.01 3.41-4.8 6.18-8.2 7.46l-2.22-4.85c2.86-0.21 5.58-1.94 7-4.21 0.78-1.5-1.91-0.74-3.44 0.35-3.07 1.92-6.74 3.51-9.43 0.91-3.46-3.06-4.04-8.05-0.07-9.24 3.17-1.06 5.65-0.92 9.96-1.06z" fill="#000"/>
  <path d="m186.6 19.78 10.34-6.12 8.19-2.63-2.75 6.88 11.05-8.36 7.8-1.92-21.14 19.56-5.79 3.88-0.99-2.96 4.31-11.06-6.5 6.88-4.52-4.15z" fill="#000"/>
  <path d="m229.1 7.06 4.04 0.85-22.92 33.99-4.11-2.83 3.81-6.96-3.81-1.18-5.5 3.68-3.46-3.68 23.88-19.1 8.07-4.77zm-5.55 7.65-10.45 10.24 2.93 0.78 7.52-11.02z" fill="#000"/>
  <path d="m237.8 7 4.38 0.91-17.04 24.03 21.62-21.91 2.69 3.42 0.41 12.42-6.36 9.09-0.71-7.77-6.64 8.96 2.76 2.92-4.04 5.86-3.67-3.81-5.43 7.15 5.22 4.44-6.29 7.15-5.62-8.64 18.72-44.22z" fill="#000"/>
  <path d="m248.2 34.18 0.21 4.44-2.86 10.24-1.74 0.21 0.99-5.57-1.93 1.92-0.35 10.81c-0.84 5.68-3.77 9.88-7.1 9.45-4.8-0.75-5.01-7.05-2.6-11.22l3.91-3.45-0.71 5.15c-0.15 1.66 1.38 2.51 2.09 1.16l0.92-11.58c0.71-4.69 3.97-9.53 9.17-11.56z" fill="#000"/>
</svg>